<svg xmlns="http://www.w3.org/2000/svg" viewBox="0 0 64 64">
  <defs>
    <linearGradient id="g" x1="0" x2="1">
      <stop offset="0" stop-color="#0ea5e9"/>
      <stop offset="1" stop-color="#22c55e"/>
    </linearGradient>
  </defs>
  <rect width="64" height="64" rx="14" fill="#070A12"/>
  <path fill="url(#g)" d="M32 10c8.8 0 16 7.2 16 16 0 7-4.5 13-10.8 15.1-.8.3-1.2 1-1.2 1.8l.6 7.1c.1 1.2-.8 2.2-2 2.3-3 .3-6.1.3-9.1 0-1.2-.1-2.1-1.1-2-2.3l.6-7.1c.1-.8-.4-1.5-1.2-1.8C16.5 39 12 33 12 26c0-8.8 7.2-16 16-16z"/>
</svg>
