<svg xmlns="http://www.w3.org/2000/svg" viewBox="0 0 64 64">
  <defs>
    <linearGradient id="g" x1="0" x2="1">
      <stop offset="0" stop-color="#0ea5e9"/>
      <stop offset="1" stop-color="#22c55e"/>
    </linearGradient>
  </defs>
  <path fill="url(#g)" d="M32 6c9.9 0 18 8.1 18 18 0 7.6-4.7 14.1-11.4 16.8-.8.3-1.3 1.1-1.2 1.9l.8 9.1c.1 1.2-.8 2.3-2 2.4-3.5.4-6.8.4-10.3 0-1.2-.1-2.1-1.2-2-2.4l.8-9.1c.1-.8-.4-1.6-1.2-1.9C18.7 38.1 14 31.6 14 24 14 14.1 22.1 6 32 6z"/>
  <path fill="rgba(255,255,255,.92)" d="M22.4 26.5c2.3 0 4.1-1.8 4.1-4.1s-1.8-4.1-4.1-4.1-4.1 1.8-4.1 4.1 1.8 4.1 4.1 4.1zm19.2 0c2.3 0 4.1-1.8 4.1-4.1s-1.8-4.1-4.1-4.1-4.1 1.8-4.1 4.1 1.9 4.1 4.1 4.1z"/>
  <path fill="rgba(255,255,255,.9)" d="M22.7 38.2c3.2-3.1 7.2-4.7 9.3-4.7s6.1 1.6 9.3 4.7c1 1 1 2.6 0 3.6-1 1-2.6 1-3.6 0-2.4-2.4-4.9-3.1-5.7-3.1s-3.3.7-5.7 3.1c-1 1-2.6 1-3.6 0-1-1-1-2.6 0-3.6z"/>
</svg>
