<svg xmlns="http://www.w3.org/2000/svg" viewBox="0 0 420 680">
  <defs>
    <linearGradient id="g" x1="0" x2="1">
      <stop offset="0" stop-color="rgba(14,165,233,.95)"/>
      <stop offset="1" stop-color="rgba(34,197,94,.90)"/>
    </linearGradient>
  </defs>
  <rect x="28" y="18" width="364" height="644" rx="44" fill="rgba(2,6,23,.65)" stroke="rgba(148,163,184,.25)" stroke-width="2"/>
  <rect x="54" y="68" width="312" height="562" rx="28" fill="rgba(15,23,42,.45)" stroke="rgba(148,163,184,.18)"/>
  <rect x="160" y="36" width="100" height="10" rx="5" fill="rgba(148,163,184,.35)"/>
  <g transform="translate(76,98)">
    <rect width="268" height="88" rx="18" fill="rgba(14,165,233,.10)" stroke="rgba(14,165,233,.22)"/>
    <text x="18" y="34" fill="#e5e7eb" font-family="system-ui, -apple-system, Segoe UI" font-weight="800" font-size="18">Today’s tweak</text>
    <text x="18" y="62" fill="#94a3b8" font-family="system-ui, -apple-system, Segoe UI" font-weight="600" font-size="14">Cut treats by 15% • add tug reward</text>
  </g>
  <g transform="translate(76,202)">
    <rect width="268" height="170" rx="18" fill="rgba(34,197,94,.10)" stroke="rgba(34,197,94,.22)"/>
    <text x="18" y="34" fill="#e5e7eb" font-family="system-ui, -apple-system, Segoe UI" font-weight="800" font-size="18">Session plan</text>
    <text x="18" y="62" fill="#94a3b8" font-family="system-ui, -apple-system, Segoe UI" font-weight="600" font-size="14">3 mins: focus + name game</text>
    <text x="18" y="88" fill="#94a3b8" font-family="system-ui, -apple-system, Segoe UI" font-weight="600" font-size="14">2 mins: loose-lead practice</text>
    <text x="18" y="114" fill="#94a3b8" font-family="system-ui, -apple-system, Segoe UI" font-weight="600" font-size="14">1 min: settle on mat</text>
    <rect x="18" y="132" width="232" height="12" rx="6" fill="rgba(148,163,184,.18)"/>
    <rect x="18" y="132" width="162" height="12" rx="6" fill="url(#g)"/>
  </g>
  <g transform="translate(76,392)">
    <rect width="268" height="210" rx="18" fill="rgba(2,6,23,.22)" stroke="rgba(148,163,184,.18)"/>
    <text x="18" y="34" fill="#e5e7eb" font-family="system-ui, -apple-system, Segoe UI" font-weight="800" font-size="18">Motivation</text>
    <text x="18" y="62" fill="#94a3b8" font-family="system-ui, -apple-system, Segoe UI" font-weight="600" font-size="14">Treat value: medium</text>
    <rect x="18" y="76" width="232" height="10" rx="5" fill="rgba(148,163,184,.18)"/>
    <rect x="18" y="76" width="140" height="10" rx="5" fill="url(#g)"/>
    <text x="18" y="120" fill="#94a3b8" font-family="system-ui, -apple-system, Segoe UI" font-weight="600" font-size="14">Toy: tug rope</text>
    <rect x="18" y="134" width="232" height="10" rx="5" fill="rgba(148,163,184,.18)"/>
    <rect x="18" y="134" width="190" height="10" rx="5" fill="url(#g)"/>
    <text x="18" y="178" fill="#94a3b8" font-family="system-ui, -apple-system, Segoe UI" font-weight="600" font-size="14">Marker timing: good</text>
    <rect x="18" y="192" width="232" height="10" rx="5" fill="rgba(148,163,184,.18)"/>
    <rect x="18" y="192" width="175" height="10" rx="5" fill="url(#g)"/>
  </g>
</svg>
